# Blender 3.6.0
# www.blender.org
mtllib Saturn.mtl
o Cube
v 0.990055 0.135191 -1.527939
v 1.000036 -0.171587 -1.542877
v 1.771445 0.135191 -0.358505
v 1.789066 -0.171587 -0.362010
v 1.000000 -1.000000 1.000000
v -1.000000 1.000000 -1.000000
v 1.497057 0.135191 1.020936
v 1.511995 -0.171587 1.030918
v 0.327623 0.135191 1.802327
v 0.331128 -0.171587 1.819948
v -1.051819 0.135191 1.527939
v -1.061800 -0.171587 1.542877
v -1.833210 0.135191 0.358505
v -1.850830 -0.171587 0.362010
v -1.558821 0.135191 -1.020937
v -1.573759 -0.171587 -1.030918
v -0.389387 0.135191 -1.802327
v -0.392892 -0.171587 -1.819948
v 1.505547 -0.171587 -2.299427
v 1.000000 1.000000 -1.000000
v 2.681479 -0.171587 -0.539522
v -1.000000 -1.000000 -1.000000
v 2.268545 -0.171587 1.536428
v 0.508640 -0.171587 2.712360
v -1.567310 -0.171587 2.299427
v -2.743242 -0.171587 0.539522
v -2.330309 -0.171587 -1.536428
v -0.570404 -0.171587 -2.712360
v 1.000036 0.134487 -1.542877
v 1.000000 -1.000000 -1.000000
v 1.789066 0.134487 -0.362010
v -1.000000 1.000000 1.000000
v 1.511995 0.134487 1.030918
v 0.331128 0.134487 1.819948
v -1.061800 0.134487 1.542877
v -1.850830 0.134487 0.362010
v -1.573759 0.134487 -1.030918
v -0.392892 0.134487 -1.819948
v 1.505547 0.135191 -2.299427
v 1.000000 1.000000 1.000000
v 2.681479 0.135191 -0.539522
v -1.000000 -1.000000 1.000000
v 2.268545 0.135191 1.536428
v 0.508640 0.135191 2.712360
v -1.567310 0.135191 2.299427
v -2.743242 0.135191 0.539522
v -2.330309 0.135191 -1.536428
v -0.570404 0.135191 -2.712360
vn -0.0000 -1.0000 -0.0000
vn -0.0000 1.0000 -0.0000
vn -0.8315 -0.0000 0.5556
vn -0.5556 -0.0000 -0.8315
vn 0.9808 -0.0000 0.1951
vn -0.0000 -0.0000 1.0000
vn 0.5556 -0.0000 0.8315
vn -0.1951 -0.0000 0.9808
vn -0.9808 -0.0000 -0.1951
vn 0.8315 -0.0000 -0.5556
vn 1.0000 -0.0000 -0.0000
vn -1.0000 -0.0000 -0.0000
vn -0.0000 -0.0000 -1.0000
vn 0.1951 -0.0000 -0.9808
vt 0.617400 0.338601
vt 0.593587 0.218888
vt 0.514612 0.203178
vt 0.550447 0.383337
vt 0.339467 0.383897
vt 0.407942 0.281417
vt 0.485388 0.296822
vt 0.383337 0.449553
vt 0.383897 0.160533
vt 0.449553 0.116663
vt 0.375000 0.000000
vt 0.625000 0.000000
vt 0.625000 0.250000
vt 0.375000 0.250000
vt 0.281417 0.092058
vt 0.296822 0.014612
vt 0.160533 0.116104
vt 0.116663 0.050447
vt 0.092058 0.218583
vt 0.014612 0.203178
vt 0.116104 0.339467
vt 0.050447 0.383337
vt 0.218584 0.407942
vt 0.203178 0.485388
vt 0.906250 1.000000
vt 0.781250 1.000000
vt 0.781250 0.500000
vt 0.906250 0.500000
vt 0.781112 0.093587
vt 0.882600 0.161399
vt 0.949553 0.116663
vt 0.796822 0.014612
vt 0.625000 0.500000
vt 0.375000 0.500000
vt 0.838601 0.382600
vt 0.718888 0.406413
vt 0.703178 0.485388
vt 0.883337 0.449553
vt 0.661399 0.117400
vt 0.616663 0.050447
vt 0.906412 0.281112
vt 0.985388 0.296822
vt 0.625000 0.750000
vt 0.375000 0.750000
vt 0.656250 1.000000
vt 0.531250 1.000000
vt 0.531250 0.500000
vt 0.656250 0.500000
vt 0.625000 1.000000
vt 0.375000 1.000000
vt 0.125000 0.500000
vt 0.125000 0.750000
vt 0.875000 0.500000
vt 0.875000 0.750000
vt 0.406250 1.000000
vt 0.406250 0.500000
vt 0.281250 1.000000
vt 0.281250 0.500000
vt 0.156250 1.000000
vt 0.156250 0.500000
vt 0.031250 1.000000
vt 0.031250 0.500000
s 0
usemtl Material
f 15/1/1 13/2/1 46/3/1 47/4/1
f 2/5/2 4/6/2 21/7/2 19/8/2
f 4/6/2 8/9/2 23/10/2 21/7/2
f 22/11/1 30/12/1 5/13/1 42/14/1
f 8/9/2 10/15/2 24/16/2 23/10/2
f 10/15/2 12/17/2 25/18/2 24/16/2
f 12/17/2 14/19/2 26/20/2 25/18/2
f 14/19/2 16/21/2 27/22/2 26/20/2
f 16/21/2 18/23/2 28/24/2 27/22/2
f 19/25/3 21/26/3 41/27/3 39/28/3
f 9/29/1 7/30/1 43/31/1 44/32/1
f 18/23/4 16/21/4 37/21/4 38/23/4
f 8/9/5 4/6/5 31/6/5 33/9/5
f 5/14/6 40/13/6 32/33/6 42/34/6
f 10/15/7 8/9/7 33/9/7 34/15/7
f 12/17/8 10/15/8 34/15/8 35/17/8
f 14/19/3 12/17/3 35/17/3 36/19/3
f 14/19/9 36/19/9 37/21/9 16/21/9
f 18/23/2 2/5/2 19/8/2 28/24/2
f 4/6/10 2/5/10 29/5/10 31/6/10
f 1/35/1 17/36/1 48/37/1 39/38/1
f 17/36/1 15/1/1 47/4/1 48/37/1
f 11/39/1 9/29/1 44/32/1 45/40/1
f 3/41/1 1/35/1 39/38/1 41/42/1
f 13/2/1 11/39/1 45/40/1 46/3/1
f 7/30/1 3/41/1 41/42/1 43/31/1
f 30/34/11 20/33/11 40/43/11 5/44/11
f 23/45/4 24/46/4 44/47/4 43/48/4
f 21/26/9 23/45/9 43/48/9 41/27/9
f 20/44/2 6/43/2 32/49/2 40/50/2
f 42/51/12 32/34/12 6/44/12 22/52/12
f 22/33/13 6/53/13 20/54/13 30/43/13
f 24/46/14 25/55/14 45/56/14 44/47/14
f 25/55/10 26/57/10 46/58/10 45/56/10
f 26/57/5 27/59/5 47/60/5 46/58/5
f 27/59/7 28/61/7 48/62/7 47/60/7
f 28/61/8 19/25/8 39/28/8 48/62/8
f 2/5/14 18/23/14 38/23/14 29/5/14
